<mxfile host="app.diagrams.net" modified="2023-09-08T12:50:55.004Z" agent="Mozilla/5.0 (Windows NT 10.0; Win64; x64) AppleWebKit/537.36 (KHTML, like Gecko) Chrome/115.0.0.0 Safari/537.36 Edg/115.0.1901.203" etag="ORVguVEI2hK1-hpLC0K8" version="21.7.2" type="github">
  <diagram name="第 1 页" id="HkDH1WnvzMsQlN8U5Ebd">
    <mxGraphModel dx="1042" dy="569" grid="1" gridSize="10" guides="1" tooltips="1" connect="1" arrows="1" fold="1" page="1" pageScale="1" pageWidth="827" pageHeight="1169" math="0" shadow="0">
      <root>
        <mxCell id="0" />
        <mxCell id="1" parent="0" />
        <mxCell id="5DwRUI1D6ZpZmtXMrrbW-1" value="" style="ellipse;whiteSpace=wrap;html=1;aspect=fixed;strokeWidth=6;" vertex="1" parent="1">
          <mxGeometry x="170" y="180" width="80" height="80" as="geometry" />
        </mxCell>
        <mxCell id="5DwRUI1D6ZpZmtXMrrbW-2" value="" style="endArrow=none;html=1;rounded=0;strokeWidth=6;" edge="1" parent="1">
          <mxGeometry width="50" height="50" relative="1" as="geometry">
            <mxPoint x="210" y="360" as="sourcePoint" />
            <mxPoint x="210" y="260" as="targetPoint" />
          </mxGeometry>
        </mxCell>
        <mxCell id="5DwRUI1D6ZpZmtXMrrbW-3" value="" style="endArrow=none;html=1;rounded=0;strokeWidth=6;entryX=0.5;entryY=1;entryDx=0;entryDy=0;" edge="1" parent="1" target="5DwRUI1D6ZpZmtXMrrbW-1">
          <mxGeometry width="50" height="50" relative="1" as="geometry">
            <mxPoint x="150" y="290" as="sourcePoint" />
            <mxPoint x="90" y="270" as="targetPoint" />
          </mxGeometry>
        </mxCell>
        <mxCell id="5DwRUI1D6ZpZmtXMrrbW-4" value="" style="endArrow=none;html=1;rounded=0;strokeWidth=6;entryX=0.5;entryY=1;entryDx=0;entryDy=0;" edge="1" parent="1" target="5DwRUI1D6ZpZmtXMrrbW-1">
          <mxGeometry width="50" height="50" relative="1" as="geometry">
            <mxPoint x="240" y="320" as="sourcePoint" />
            <mxPoint x="520" y="220" as="targetPoint" />
          </mxGeometry>
        </mxCell>
        <mxCell id="5DwRUI1D6ZpZmtXMrrbW-5" value="" style="endArrow=none;html=1;rounded=0;strokeWidth=6;" edge="1" parent="1">
          <mxGeometry width="50" height="50" relative="1" as="geometry">
            <mxPoint x="250" y="400" as="sourcePoint" />
            <mxPoint x="210" y="360" as="targetPoint" />
          </mxGeometry>
        </mxCell>
        <mxCell id="5DwRUI1D6ZpZmtXMrrbW-6" value="" style="endArrow=none;html=1;rounded=0;strokeWidth=6;" edge="1" parent="1">
          <mxGeometry width="50" height="50" relative="1" as="geometry">
            <mxPoint x="160" y="410" as="sourcePoint" />
            <mxPoint x="210" y="360" as="targetPoint" />
          </mxGeometry>
        </mxCell>
        <mxCell id="5DwRUI1D6ZpZmtXMrrbW-7" value="" style="endArrow=none;html=1;rounded=0;strokeWidth=6;" edge="1" parent="1">
          <mxGeometry width="50" height="50" relative="1" as="geometry">
            <mxPoint x="110" y="460" as="sourcePoint" />
            <mxPoint x="160" y="410" as="targetPoint" />
          </mxGeometry>
        </mxCell>
        <mxCell id="5DwRUI1D6ZpZmtXMrrbW-8" value="" style="endArrow=none;html=1;rounded=0;strokeWidth=6;" edge="1" parent="1">
          <mxGeometry width="50" height="50" relative="1" as="geometry">
            <mxPoint x="260" y="460" as="sourcePoint" />
            <mxPoint x="250" y="400" as="targetPoint" />
          </mxGeometry>
        </mxCell>
        <mxCell id="5DwRUI1D6ZpZmtXMrrbW-9" value="" style="endArrow=none;html=1;rounded=0;strokeWidth=6;" edge="1" parent="1">
          <mxGeometry width="50" height="50" relative="1" as="geometry">
            <mxPoint x="90" y="280" as="sourcePoint" />
            <mxPoint x="150" y="290" as="targetPoint" />
          </mxGeometry>
        </mxCell>
        <mxCell id="5DwRUI1D6ZpZmtXMrrbW-10" value="" style="endArrow=none;html=1;rounded=0;strokeWidth=6;" edge="1" parent="1">
          <mxGeometry width="50" height="50" relative="1" as="geometry">
            <mxPoint x="300" y="310" as="sourcePoint" />
            <mxPoint x="240" y="320" as="targetPoint" />
          </mxGeometry>
        </mxCell>
        <mxCell id="5DwRUI1D6ZpZmtXMrrbW-61" value="" style="shape=image;html=1;verticalAlign=top;verticalLabelPosition=bottom;labelBackgroundColor=#ffffff;imageAspect=0;aspect=fixed;image=https://cdn0.iconfinder.com/data/icons/security-hand-drawn-vol-3-1/52/gun__pistol__weapon__security-128.png" vertex="1" parent="1">
          <mxGeometry x="290" y="240" width="78" height="78" as="geometry" />
        </mxCell>
        <mxCell id="5DwRUI1D6ZpZmtXMrrbW-69" value="" style="group" vertex="1" connectable="0" parent="1">
          <mxGeometry x="380" y="180" width="278" height="280" as="geometry" />
        </mxCell>
        <mxCell id="5DwRUI1D6ZpZmtXMrrbW-35" value="" style="endArrow=none;html=1;rounded=0;strokeWidth=6;" edge="1" parent="5DwRUI1D6ZpZmtXMrrbW-69">
          <mxGeometry width="50" height="50" relative="1" as="geometry">
            <mxPoint x="170" y="230" as="sourcePoint" />
            <mxPoint x="120" y="180" as="targetPoint" />
          </mxGeometry>
        </mxCell>
        <mxCell id="5DwRUI1D6ZpZmtXMrrbW-36" value="" style="endArrow=none;html=1;rounded=0;strokeWidth=6;" edge="1" parent="5DwRUI1D6ZpZmtXMrrbW-69">
          <mxGeometry width="50" height="50" relative="1" as="geometry">
            <mxPoint x="40" y="280" as="sourcePoint" />
            <mxPoint x="120" y="180" as="targetPoint" />
          </mxGeometry>
        </mxCell>
        <mxCell id="5DwRUI1D6ZpZmtXMrrbW-38" value="" style="endArrow=none;html=1;rounded=0;strokeWidth=6;" edge="1" parent="5DwRUI1D6ZpZmtXMrrbW-69">
          <mxGeometry width="50" height="50" relative="1" as="geometry">
            <mxPoint x="190" y="280" as="sourcePoint" />
            <mxPoint x="170" y="230" as="targetPoint" />
          </mxGeometry>
        </mxCell>
        <mxCell id="5DwRUI1D6ZpZmtXMrrbW-62" value="" style="ellipse;whiteSpace=wrap;html=1;aspect=fixed;strokeWidth=6;" vertex="1" parent="5DwRUI1D6ZpZmtXMrrbW-69">
          <mxGeometry x="80" width="80" height="80" as="geometry" />
        </mxCell>
        <mxCell id="5DwRUI1D6ZpZmtXMrrbW-63" value="" style="endArrow=none;html=1;rounded=0;strokeWidth=6;" edge="1" parent="5DwRUI1D6ZpZmtXMrrbW-69">
          <mxGeometry width="50" height="50" relative="1" as="geometry">
            <mxPoint x="120" y="180" as="sourcePoint" />
            <mxPoint x="120" y="80" as="targetPoint" />
          </mxGeometry>
        </mxCell>
        <mxCell id="5DwRUI1D6ZpZmtXMrrbW-64" value="" style="endArrow=none;html=1;rounded=0;strokeWidth=6;entryX=0.5;entryY=1;entryDx=0;entryDy=0;" edge="1" parent="5DwRUI1D6ZpZmtXMrrbW-69" target="5DwRUI1D6ZpZmtXMrrbW-62">
          <mxGeometry width="50" height="50" relative="1" as="geometry">
            <mxPoint x="60" y="110" as="sourcePoint" />
            <mxPoint y="90" as="targetPoint" />
          </mxGeometry>
        </mxCell>
        <mxCell id="5DwRUI1D6ZpZmtXMrrbW-65" value="" style="endArrow=none;html=1;rounded=0;strokeWidth=6;entryX=0.5;entryY=1;entryDx=0;entryDy=0;" edge="1" parent="5DwRUI1D6ZpZmtXMrrbW-69" target="5DwRUI1D6ZpZmtXMrrbW-62">
          <mxGeometry width="50" height="50" relative="1" as="geometry">
            <mxPoint x="150" y="140" as="sourcePoint" />
            <mxPoint x="430" y="40" as="targetPoint" />
          </mxGeometry>
        </mxCell>
        <mxCell id="5DwRUI1D6ZpZmtXMrrbW-66" value="" style="endArrow=none;html=1;rounded=0;strokeWidth=6;" edge="1" parent="5DwRUI1D6ZpZmtXMrrbW-69">
          <mxGeometry width="50" height="50" relative="1" as="geometry">
            <mxPoint y="100" as="sourcePoint" />
            <mxPoint x="60" y="110" as="targetPoint" />
          </mxGeometry>
        </mxCell>
        <mxCell id="5DwRUI1D6ZpZmtXMrrbW-67" value="" style="endArrow=none;html=1;rounded=0;strokeWidth=6;" edge="1" parent="5DwRUI1D6ZpZmtXMrrbW-69">
          <mxGeometry width="50" height="50" relative="1" as="geometry">
            <mxPoint x="210" y="130" as="sourcePoint" />
            <mxPoint x="150" y="140" as="targetPoint" />
          </mxGeometry>
        </mxCell>
        <mxCell id="5DwRUI1D6ZpZmtXMrrbW-68" value="" style="shape=image;html=1;verticalAlign=top;verticalLabelPosition=bottom;labelBackgroundColor=#ffffff;imageAspect=0;aspect=fixed;image=https://cdn0.iconfinder.com/data/icons/security-hand-drawn-vol-3-1/52/gun__pistol__weapon__security-128.png" vertex="1" parent="5DwRUI1D6ZpZmtXMrrbW-69">
          <mxGeometry x="200" y="60" width="78" height="78" as="geometry" />
        </mxCell>
        <mxCell id="5DwRUI1D6ZpZmtXMrrbW-99" value="" style="group;flipH=1;" vertex="1" connectable="0" parent="1">
          <mxGeometry x="360" y="540" width="278" height="280" as="geometry" />
        </mxCell>
        <mxCell id="5DwRUI1D6ZpZmtXMrrbW-100" value="" style="endArrow=none;html=1;rounded=0;strokeWidth=6;" edge="1" parent="5DwRUI1D6ZpZmtXMrrbW-99">
          <mxGeometry width="50" height="50" relative="1" as="geometry">
            <mxPoint x="108" y="230" as="sourcePoint" />
            <mxPoint x="158" y="180" as="targetPoint" />
          </mxGeometry>
        </mxCell>
        <mxCell id="5DwRUI1D6ZpZmtXMrrbW-101" value="" style="endArrow=none;html=1;rounded=0;strokeWidth=6;" edge="1" parent="5DwRUI1D6ZpZmtXMrrbW-99">
          <mxGeometry width="50" height="50" relative="1" as="geometry">
            <mxPoint x="238" y="280" as="sourcePoint" />
            <mxPoint x="158" y="180" as="targetPoint" />
          </mxGeometry>
        </mxCell>
        <mxCell id="5DwRUI1D6ZpZmtXMrrbW-102" value="" style="endArrow=none;html=1;rounded=0;strokeWidth=6;" edge="1" parent="5DwRUI1D6ZpZmtXMrrbW-99">
          <mxGeometry width="50" height="50" relative="1" as="geometry">
            <mxPoint x="88" y="280" as="sourcePoint" />
            <mxPoint x="108" y="230" as="targetPoint" />
          </mxGeometry>
        </mxCell>
        <mxCell id="5DwRUI1D6ZpZmtXMrrbW-103" value="" style="ellipse;whiteSpace=wrap;html=1;aspect=fixed;strokeWidth=6;" vertex="1" parent="5DwRUI1D6ZpZmtXMrrbW-99">
          <mxGeometry x="118" width="80" height="80" as="geometry" />
        </mxCell>
        <mxCell id="5DwRUI1D6ZpZmtXMrrbW-104" value="" style="endArrow=none;html=1;rounded=0;strokeWidth=6;" edge="1" parent="5DwRUI1D6ZpZmtXMrrbW-99">
          <mxGeometry width="50" height="50" relative="1" as="geometry">
            <mxPoint x="158" y="180" as="sourcePoint" />
            <mxPoint x="158" y="80" as="targetPoint" />
          </mxGeometry>
        </mxCell>
        <mxCell id="5DwRUI1D6ZpZmtXMrrbW-105" value="" style="endArrow=none;html=1;rounded=0;strokeWidth=6;entryX=0.5;entryY=1;entryDx=0;entryDy=0;" edge="1" parent="5DwRUI1D6ZpZmtXMrrbW-99" target="5DwRUI1D6ZpZmtXMrrbW-103">
          <mxGeometry width="50" height="50" relative="1" as="geometry">
            <mxPoint x="218" y="110" as="sourcePoint" />
            <mxPoint x="278" y="90" as="targetPoint" />
          </mxGeometry>
        </mxCell>
        <mxCell id="5DwRUI1D6ZpZmtXMrrbW-106" value="" style="endArrow=none;html=1;rounded=0;strokeWidth=6;entryX=0.5;entryY=1;entryDx=0;entryDy=0;" edge="1" parent="5DwRUI1D6ZpZmtXMrrbW-99" target="5DwRUI1D6ZpZmtXMrrbW-103">
          <mxGeometry width="50" height="50" relative="1" as="geometry">
            <mxPoint x="128" y="140" as="sourcePoint" />
            <mxPoint x="-152" y="40" as="targetPoint" />
          </mxGeometry>
        </mxCell>
        <mxCell id="5DwRUI1D6ZpZmtXMrrbW-107" value="" style="endArrow=none;html=1;rounded=0;strokeWidth=6;" edge="1" parent="5DwRUI1D6ZpZmtXMrrbW-99">
          <mxGeometry width="50" height="50" relative="1" as="geometry">
            <mxPoint x="278" y="100" as="sourcePoint" />
            <mxPoint x="218" y="110" as="targetPoint" />
          </mxGeometry>
        </mxCell>
        <mxCell id="5DwRUI1D6ZpZmtXMrrbW-108" value="" style="endArrow=none;html=1;rounded=0;strokeWidth=6;" edge="1" parent="5DwRUI1D6ZpZmtXMrrbW-99">
          <mxGeometry width="50" height="50" relative="1" as="geometry">
            <mxPoint x="68" y="130" as="sourcePoint" />
            <mxPoint x="128" y="140" as="targetPoint" />
          </mxGeometry>
        </mxCell>
        <mxCell id="5DwRUI1D6ZpZmtXMrrbW-109" value="" style="shape=image;html=1;verticalAlign=top;verticalLabelPosition=bottom;labelBackgroundColor=#ffffff;imageAspect=0;aspect=fixed;image=https://cdn0.iconfinder.com/data/icons/security-hand-drawn-vol-3-1/52/gun__pistol__weapon__security-128.png;flipH=1;" vertex="1" parent="5DwRUI1D6ZpZmtXMrrbW-99">
          <mxGeometry y="60" width="78" height="78" as="geometry" />
        </mxCell>
        <mxCell id="5DwRUI1D6ZpZmtXMrrbW-110" value="" style="group;flipH=1;" vertex="1" connectable="0" parent="1">
          <mxGeometry x="70" y="540" width="278" height="280" as="geometry" />
        </mxCell>
        <mxCell id="5DwRUI1D6ZpZmtXMrrbW-88" value="" style="ellipse;whiteSpace=wrap;html=1;aspect=fixed;strokeWidth=6;" vertex="1" parent="5DwRUI1D6ZpZmtXMrrbW-110">
          <mxGeometry x="118" width="80" height="80" as="geometry" />
        </mxCell>
        <mxCell id="5DwRUI1D6ZpZmtXMrrbW-89" value="" style="endArrow=none;html=1;rounded=0;strokeWidth=6;" edge="1" parent="5DwRUI1D6ZpZmtXMrrbW-110">
          <mxGeometry width="50" height="50" relative="1" as="geometry">
            <mxPoint x="158" y="180" as="sourcePoint" />
            <mxPoint x="158" y="80" as="targetPoint" />
          </mxGeometry>
        </mxCell>
        <mxCell id="5DwRUI1D6ZpZmtXMrrbW-90" value="" style="endArrow=none;html=1;rounded=0;strokeWidth=6;entryX=0.5;entryY=1;entryDx=0;entryDy=0;" edge="1" parent="5DwRUI1D6ZpZmtXMrrbW-110" target="5DwRUI1D6ZpZmtXMrrbW-88">
          <mxGeometry width="50" height="50" relative="1" as="geometry">
            <mxPoint x="218" y="110" as="sourcePoint" />
            <mxPoint x="278" y="90" as="targetPoint" />
          </mxGeometry>
        </mxCell>
        <mxCell id="5DwRUI1D6ZpZmtXMrrbW-91" value="" style="endArrow=none;html=1;rounded=0;strokeWidth=6;entryX=0.5;entryY=1;entryDx=0;entryDy=0;" edge="1" parent="5DwRUI1D6ZpZmtXMrrbW-110" target="5DwRUI1D6ZpZmtXMrrbW-88">
          <mxGeometry width="50" height="50" relative="1" as="geometry">
            <mxPoint x="128" y="140" as="sourcePoint" />
            <mxPoint x="-152" y="40" as="targetPoint" />
          </mxGeometry>
        </mxCell>
        <mxCell id="5DwRUI1D6ZpZmtXMrrbW-92" value="" style="endArrow=none;html=1;rounded=0;strokeWidth=6;" edge="1" parent="5DwRUI1D6ZpZmtXMrrbW-110">
          <mxGeometry width="50" height="50" relative="1" as="geometry">
            <mxPoint x="118" y="220" as="sourcePoint" />
            <mxPoint x="158" y="180" as="targetPoint" />
          </mxGeometry>
        </mxCell>
        <mxCell id="5DwRUI1D6ZpZmtXMrrbW-93" value="" style="endArrow=none;html=1;rounded=0;strokeWidth=6;" edge="1" parent="5DwRUI1D6ZpZmtXMrrbW-110">
          <mxGeometry width="50" height="50" relative="1" as="geometry">
            <mxPoint x="208" y="230" as="sourcePoint" />
            <mxPoint x="158" y="180" as="targetPoint" />
          </mxGeometry>
        </mxCell>
        <mxCell id="5DwRUI1D6ZpZmtXMrrbW-94" value="" style="endArrow=none;html=1;rounded=0;strokeWidth=6;" edge="1" parent="5DwRUI1D6ZpZmtXMrrbW-110">
          <mxGeometry width="50" height="50" relative="1" as="geometry">
            <mxPoint x="258" y="280" as="sourcePoint" />
            <mxPoint x="208" y="230" as="targetPoint" />
          </mxGeometry>
        </mxCell>
        <mxCell id="5DwRUI1D6ZpZmtXMrrbW-95" value="" style="endArrow=none;html=1;rounded=0;strokeWidth=6;" edge="1" parent="5DwRUI1D6ZpZmtXMrrbW-110">
          <mxGeometry width="50" height="50" relative="1" as="geometry">
            <mxPoint x="108" y="280" as="sourcePoint" />
            <mxPoint x="118" y="220" as="targetPoint" />
          </mxGeometry>
        </mxCell>
        <mxCell id="5DwRUI1D6ZpZmtXMrrbW-96" value="" style="endArrow=none;html=1;rounded=0;strokeWidth=6;" edge="1" parent="5DwRUI1D6ZpZmtXMrrbW-110">
          <mxGeometry width="50" height="50" relative="1" as="geometry">
            <mxPoint x="278" y="100" as="sourcePoint" />
            <mxPoint x="218" y="110" as="targetPoint" />
          </mxGeometry>
        </mxCell>
        <mxCell id="5DwRUI1D6ZpZmtXMrrbW-97" value="" style="endArrow=none;html=1;rounded=0;strokeWidth=6;" edge="1" parent="5DwRUI1D6ZpZmtXMrrbW-110">
          <mxGeometry width="50" height="50" relative="1" as="geometry">
            <mxPoint x="68" y="130" as="sourcePoint" />
            <mxPoint x="128" y="140" as="targetPoint" />
          </mxGeometry>
        </mxCell>
        <mxCell id="5DwRUI1D6ZpZmtXMrrbW-98" value="" style="shape=image;html=1;verticalAlign=top;verticalLabelPosition=bottom;labelBackgroundColor=#ffffff;imageAspect=0;aspect=fixed;image=https://cdn0.iconfinder.com/data/icons/security-hand-drawn-vol-3-1/52/gun__pistol__weapon__security-128.png;flipH=1;" vertex="1" parent="5DwRUI1D6ZpZmtXMrrbW-110">
          <mxGeometry y="60" width="78" height="78" as="geometry" />
        </mxCell>
      </root>
    </mxGraphModel>
  </diagram>
</mxfile>
